<svg xmlns="http://www.w3.org/2000/svg" viewBox="0 0 32 32" fill="none">
  <!-- Background -->
  <rect width="32" height="32" rx="8" fill="#8B5CF6"/>
  
  <!-- Rabbit ears -->
  <ellipse cx="12" cy="8" rx="2.5" ry="6" fill="white" transform="rotate(-15 12 8)"/>
  <ellipse cx="20" cy="8" rx="2.5" ry="6" fill="white" transform="rotate(15 20 8)"/>
  
  <!-- Inner ears -->
  <ellipse cx="12" cy="9" rx="1" ry="3" fill="#F8FAFC" transform="rotate(-15 12 9)"/>
  <ellipse cx="20" cy="9" rx="1" ry="3" fill="#F8FAFC" transform="rotate(15 20 9)"/>
  
  <!-- Head -->
  <circle cx="16" cy="18" r="7" fill="white"/>
  
  <!-- Eyes -->
  <circle cx="13.5" cy="16" r="1.5" fill="#2D3748"/>
  <circle cx="18.5" cy="16" r="1.5" fill="#2D3748"/>
  
  <!-- Eye highlights -->
  <circle cx="14" cy="15.5" r="0.5" fill="white"/>
  <circle cx="19" cy="15.5" r="0.5" fill="white"/>
  
  <!-- Nose -->
  <ellipse cx="16" cy="19" rx="0.8" ry="0.5" fill="#EC4899"/>
  
  <!-- Mouth -->
  <path d="M16 20 Q14 21.5 13 22 Q16 21 16 20 Q18 21.5 19 22" stroke="#2D3748" stroke-width="0.8" fill="none" stroke-linecap="round"/>
  
  <!-- Whiskers -->
  <path d="M10 18 L13 18.5" stroke="#2D3748" stroke-width="0.5" stroke-linecap="round"/>
  <path d="M10 19.5 L13 19" stroke="#2D3748" stroke-width="0.5" stroke-linecap="round"/>
  <path d="M22 18 L19 18.5" stroke="#2D3748" stroke-width="0.5" stroke-linecap="round"/>
  <path d="M22 19.5 L19 19" stroke="#2D3748" stroke-width="0.5" stroke-linecap="round"/>
</svg>
